# xmcd CD database file
#
# Track frame offsets:
#	150
#	10841
#	26678
#	39793
#	53796
#	66472
#	80898
#	93601
#	103993
#	115826
#	128529
#
# Disc length: 1892 seconds
#
# Revision: 0
# Processed by: cddbd v1.4PL0 Copyright (c) Steve Scherf et al.
# Submitted via: Feurio! 1.66 - http://www.feurio.com
#
DISCID=9007620b
DTITLE=Don Williams - Best Of Don Williams Vol. II
DYEAR=1900
DGENRE=
TTITLE0=(Turn Out The Light And) Love Me
TTITLE1=Till The River Will Run Dry
TTITLE2=Rake And Ramblin' Man
TTITLE3=I'm Just A Country Boy
TTITLE4=Some Broken Hearts Never Mend
TTITLE5=Tulsa Time
TTITLE6=She Never Knew Me
TTITLE7=Falling In Love
TTITLE8=I've Got A Winner In You
TTITLE9=You're My Best Friend
TTITLE10=Say It Again
EXTD=
EXTT0=
EXTT1=
EXTT2=
EXTT3=
EXTT4=
EXTT5=
EXTT6=
EXTT7=
EXTT8=
EXTT9=
EXTT10=
PLAYORDER=
